<?xml version="1.0" encoding="utf-8"?>
<!-- Generator: Adobe Illustrator 26.0.2, SVG Export Plug-In . SVG Version: 6.00 Build 0)  -->
<svg version="1.1" id="Capa_1" xmlns="http://www.w3.org/2000/svg" xmlns:xlink="http://www.w3.org/1999/xlink" x="0px" y="0px"
	 viewBox="0 0 248 200" style="enable-background:new 0 0 248 200;" xml:space="preserve">
<style type="text/css">
	.st0{fill:none;stroke:#000000;stroke-width:3.375;stroke-miterlimit:10;}
</style>
<g>
	<g>
		<path d="M-412.5-117.1c1.9,0,1.9-3,0-3C-414.5-120.1-414.5-117.1-412.5-117.1L-412.5-117.1z"/>
	</g>
</g>
<path class="st0" d="M124.5,175.5h-105v-157h74c17.1,0,31,13.9,31,31V175.5z"/>
<path class="st0" d="M124.5,175.5h105v-157h-74c-17.1,0-31,13.9-31,31V175.5z"/>
<line class="st0" x1="35.5" y1="51.5" x2="105.5" y2="51.5"/>
<line class="st0" x1="37" y1="106.5" x2="59.5" y2="106.5"/>
<line class="st0" x1="67" y1="106.5" x2="105.5" y2="106.5"/>
<line class="st0" x1="36" y1="84.5" x2="106" y2="84.5"/>
<line class="st0" x1="36" y1="96.5" x2="78.5" y2="96.5"/>
<line class="st0" x1="36" y1="62.5" x2="71.5" y2="62.5"/>
<line class="st0" x1="36" y1="73.5" x2="53.5" y2="73.5"/>
<line class="st0" x1="59" y1="73.5" x2="76.5" y2="73.5"/>
<line class="st0" x1="84.5" y1="96.5" x2="106.5" y2="96.5"/>
<line class="st0" x1="81.5" y1="73.5" x2="105.5" y2="73.5"/>
<line class="st0" x1="78" y1="62.5" x2="105.5" y2="62.5"/>
<line class="st0" x1="36.5" y1="116.5" x2="106.5" y2="116.5"/>
<line class="st0" x1="37" y1="149.5" x2="107" y2="149.5"/>
<line class="st0" x1="37" y1="127.5" x2="72.5" y2="127.5"/>
<line class="st0" x1="37" y1="138.5" x2="54.5" y2="138.5"/>
<line class="st0" x1="60" y1="138.5" x2="77.5" y2="138.5"/>
<line class="st0" x1="82.5" y1="138.5" x2="106.5" y2="138.5"/>
<line class="st0" x1="79" y1="127.5" x2="106.5" y2="127.5"/>
</svg>
